<svg width="166" height="166" viewBox="0 0 166 166" fill="none" xmlns="http://www.w3.org/2000/svg">
<circle cx="83" cy="83" r="83" fill="#04BE17" fill-opacity="0.1"/>
<circle cx="83.0002" cy="82.9999" r="67.9091" fill="#04BE17" fill-opacity="0.2"/>
<path d="M83.6289 38.8804C59.6652 38.8804 40.1377 58.4079 40.1377 82.3715C40.1377 106.335 59.6652 125.863 83.6289 125.863C107.592 125.863 127.12 106.335 127.12 82.3715C127.12 58.4079 107.592 38.8804 83.6289 38.8804ZM104.418 72.3686L79.7581 97.028C79.1493 97.6369 78.3229 97.9849 77.4531 97.9849C76.5833 97.9849 75.757 97.6369 75.1481 97.028L62.8401 84.7201C61.5788 83.4588 61.5788 81.3712 62.8401 80.11C64.1013 78.8487 66.1889 78.8487 67.4501 80.11L77.4531 90.113L99.8076 67.7585C101.069 66.4973 103.156 66.4973 104.418 67.7585C105.679 69.0197 105.679 71.0638 104.418 72.3686Z" fill="#04BE17"/>
</svg>
